<svg width="300" height="100" viewBox="0 0 300 100" fill="none" xmlns="http://www.w3.org/2000/svg">
<rect width="300" height="100" fill="white"/>
<path d="M24.56 72.768C21.616 72.768 18.9707 72.0427 16.624 70.592C14.32 69.1413 12.5067 67.136 11.184 64.576C9.86133 62.016 9.2 59.136 9.2 55.936C9.2 52.6507 9.86133 49.7493 11.184 47.232C12.5493 44.672 14.4053 42.6667 16.752 41.216C19.1413 39.7227 21.808 38.976 24.752 38.976C27.056 38.976 29.0827 39.4027 30.832 40.256C32.5813 41.1093 33.9893 42.3253 35.056 43.904V25.92H43.696V72H36.016L35.056 67.584C34.416 68.48 33.6053 69.3333 32.624 70.144C31.6853 70.9547 30.5547 71.5947 29.232 72.064C27.9093 72.5333 26.352 72.768 24.56 72.768ZM26.608 65.216C28.3147 65.216 29.808 64.832 31.088 64.064C32.4107 63.2533 33.4347 62.144 34.16 60.736C34.8853 59.328 35.248 57.7067 35.248 55.872C35.248 54.0373 34.8853 52.416 34.16 51.008C33.4347 49.6 32.4107 48.512 31.088 47.744C29.808 46.9333 28.3147 46.528 26.608 46.528C24.9867 46.528 23.5147 46.9333 22.192 47.744C20.8693 48.512 19.824 49.6 19.056 51.008C18.3307 52.416 17.968 54.016 17.968 55.808C17.968 57.6853 18.3307 59.328 19.056 60.736C19.824 62.144 20.848 63.2533 22.128 64.064C23.4507 64.832 24.944 65.216 26.608 65.216ZM67.6495 72.768C64.4068 72.768 61.5268 72.0853 59.0095 70.72C56.5348 69.312 54.5935 67.3707 53.1855 64.896C51.8202 62.3787 51.1375 59.4773 51.1375 56.192C51.1375 52.8213 51.8202 49.856 53.1855 47.296C54.5935 44.6933 56.5348 42.6667 59.0095 41.216C61.4842 39.7227 64.3642 38.976 67.6495 38.976C70.8495 38.976 73.6442 39.68 76.0335 41.088C78.4228 42.496 80.2788 44.3947 81.6015 46.784C82.9242 49.1733 83.5855 51.8827 83.5855 54.912C83.5855 55.3387 83.5855 55.8293 83.5855 56.384C83.5855 56.896 83.5428 57.4293 83.4575 57.984H57.2815V52.736H74.8815C74.7535 50.6453 74.0068 49.0027 72.6415 47.808C71.3188 46.6133 69.6548 46.016 67.6495 46.016C66.1988 46.016 64.8548 46.3573 63.6175 47.04C62.3802 47.68 61.3988 48.6827 60.6735 50.048C59.9908 51.4133 59.6495 53.1413 59.6495 55.232V57.088C59.6495 58.8373 59.9695 60.3733 60.6095 61.696C61.2922 62.976 62.2308 63.9787 63.4255 64.704C64.6202 65.3867 66.0068 65.728 67.5855 65.728C69.1642 65.728 70.4655 65.3867 71.4895 64.704C72.5562 64.0213 73.3455 63.1467 73.8575 62.08H82.6895C82.0922 64.0853 81.0895 65.8987 79.6815 67.52C78.2735 69.1413 76.5455 70.4213 74.4975 71.36C72.4495 72.2987 70.1668 72.768 67.6495 72.768ZM98.0515 72L86.2115 39.744H95.2995L103.3 63.872L111.3 39.744H120.324L108.548 72H98.0515ZM144.671 72.768C143.007 72.768 141.514 72.5547 140.191 72.128C138.911 71.7013 137.759 71.1253 136.735 70.4C135.754 69.632 134.922 68.7787 134.239 67.84L133.279 72H125.599V25.92H134.239V44.224C135.263 42.7307 136.607 41.4933 138.271 40.512C139.978 39.488 142.09 38.976 144.607 38.976C147.594 38.976 150.239 39.7227 152.543 41.216C154.89 42.6667 156.724 44.672 158.047 47.232C159.412 49.7493 160.095 52.6507 160.095 55.936C160.095 59.136 159.412 62.016 158.047 64.576C156.724 67.136 154.911 69.1413 152.607 70.592C150.303 72.0427 147.658 72.768 144.671 72.768ZM142.623 65.216C144.33 65.216 145.823 64.832 147.103 64.064C148.426 63.2533 149.45 62.1653 150.175 60.8C150.9 59.392 151.263 57.7707 151.263 55.936C151.263 54.1013 150.9 52.48 150.175 51.072C149.45 49.6213 148.426 48.512 147.103 47.744C145.823 46.9333 144.33 46.528 142.623 46.528C140.959 46.528 139.466 46.9333 138.143 47.744C136.863 48.512 135.839 49.6 135.071 51.008C134.346 52.416 133.983 54.0373 133.983 55.872C133.983 57.7067 134.346 59.3493 135.071 60.8C135.839 62.208 136.863 63.296 138.143 64.064C139.466 64.832 140.959 65.216 142.623 65.216ZM167.536 72V39.744H175.217L176.049 45.696C176.817 44.288 177.777 43.0933 178.929 42.112C180.123 41.1307 181.467 40.3627 182.961 39.808C184.497 39.2533 186.182 38.976 188.017 38.976V48.128H185.073C183.793 48.128 182.598 48.2773 181.489 48.576C180.422 48.8747 179.483 49.3653 178.673 50.048C177.862 50.688 177.243 51.584 176.817 52.736C176.39 53.888 176.177 55.3387 176.177 57.088V72H167.536ZM208.712 72.768C205.469 72.768 202.589 72.0853 200.072 70.72C197.597 69.312 195.656 67.3707 194.248 64.896C192.883 62.3787 192.2 59.4773 192.2 56.192C192.2 52.8213 192.883 49.856 194.248 47.296C195.656 44.6933 197.597 42.6667 200.072 41.216C202.547 39.7227 205.427 38.976 208.712 38.976C211.912 38.976 214.707 39.68 217.096 41.088C219.485 42.496 221.341 44.3947 222.664 46.784C223.987 49.1733 224.648 51.8827 224.648 54.912C224.648 55.3387 224.648 55.8293 224.648 56.384C224.648 56.896 224.605 57.4293 224.52 57.984H198.344V52.736H215.944C215.816 50.6453 215.069 49.0027 213.704 47.808C212.381 46.6133 210.717 46.016 208.712 46.016C207.261 46.016 205.917 46.3573 204.68 47.04C203.443 47.68 202.461 48.6827 201.736 50.048C201.053 51.4133 200.712 53.1413 200.712 55.232V57.088C200.712 58.8373 201.032 60.3733 201.672 61.696C202.355 62.976 203.293 63.9787 204.488 64.704C205.683 65.3867 207.069 65.728 208.648 65.728C210.227 65.728 211.528 65.3867 212.552 64.704C213.619 64.0213 214.408 63.1467 214.92 62.08H223.752C223.155 64.0853 222.152 65.8987 220.744 67.52C219.336 69.1413 217.608 70.4213 215.56 71.36C213.512 72.2987 211.229 72.768 208.712 72.768ZM236.81 72L227.338 39.744H235.85L242.122 65.92L240.522 65.856L247.69 39.744H257.29L264.458 65.856L262.794 65.92L269.13 39.744H277.642L268.17 72H259.21L251.594 45.12H253.386L245.77 72H236.81ZM285.941 72.32C284.319 72.32 283.018 71.8507 282.036 70.912C281.055 69.9307 280.565 68.736 280.565 67.328C280.565 65.92 281.055 64.7467 282.036 63.808C283.018 62.8267 284.319 62.336 285.941 62.336C287.477 62.336 288.735 62.8267 289.717 63.808C290.698 64.7467 291.189 65.92 291.189 67.328C291.189 68.736 290.698 69.9307 289.717 70.912C288.735 71.8507 287.477 72.32 285.941 72.32Z" fill="black"/>
</svg>
