<?xml version="1.0" standalone="no"?>
<!DOCTYPE svg PUBLIC "-//W3C//DTD SVG 20010904//EN"
 "http://www.w3.org/TR/2001/REC-SVG-20010904/DTD/svg10.dtd">
<svg version="1.0" xmlns="http://www.w3.org/2000/svg"
 width="512.000000pt" height="512.000000pt" viewBox="0 0 53 48"
 preserveAspectRatio="xMidYMid meet">
  <metadata>Safari pinned tab icon generated from public/static/images/logo.svg</metadata>
  <g fill="#000000" stroke="none">
    <path d="M15.56 47.768C12.616 47.768 9.97067 47.0427 7.624 45.592C5.32 44.1413 3.50667 42.136 2.184 39.576C0.861333 37.016 0.2 34.136 0.2 30.936C0.2 27.6507 0.861333 24.7493 2.184 22.232C3.54933 19.672 5.40533 17.6667 7.752 16.216C10.1413 14.7227 12.808 13.976 15.752 13.976C18.056 13.976 20.0827 14.4027 21.832 15.256C23.5813 16.1093 24.9893 17.3253 26.056 18.904V0.919998H34.696V47H27.016L26.056 42.584C25.416 43.48 24.6053 44.3333 23.624 45.144C22.6853 45.9547 21.5547 46.5947 20.232 47.064C18.9093 47.5333 17.352 47.768 15.56 47.768ZM17.608 40.216C19.3147 40.216 20.808 39.832 22.088 39.064C23.4107 38.2533 24.4347 37.144 25.16 35.736C25.8853 34.328 26.248 32.7067 26.248 30.872C26.248 29.0373 25.8853 27.416 25.16 26.008C24.4347 24.6 23.4107 23.512 22.088 22.744C20.808 21.9333 19.3147 21.528 17.608 21.528C15.9867 21.528 14.5147 21.9333 13.192 22.744C11.8693 23.512 10.824 24.6 10.056 26.008C9.33067 27.416 8.968 29.016 8.968 30.808C8.968 32.6853 9.33067 34.328 10.056 35.736C10.824 37.144 11.848 38.2533 13.128 39.064C14.4507 39.832 15.944 40.216 17.608 40.216ZM47.0655 47.32C45.4442 47.32 44.1428 46.8507 43.1615 45.912C42.1802 44.9307 41.6895 43.736 41.6895 42.328C41.6895 40.92 42.1802 39.7467 43.1615 38.808C44.1428 37.8267 45.4442 37.336 47.0655 37.336C48.6015 37.336 49.8602 37.8267 50.8415 38.808C51.8228 39.7467 52.3135 40.92 52.3135 42.328C52.3135 43.736 51.8228 44.9307 50.8415 45.912C49.8602 46.8507 48.6015 47.32 47.0655 47.32Z"/>
  </g>
</svg>
